# xmcd
# 
# Track frame offsets:
#     150
#     18415
#     43774
#     58772
#     79055
#     102546
#     126726
#     145641
#     166337
#     184137
#     202222
#     227074
# 
# Disc length: 3332
# 
# Revision: 1
# Processed by: cddbd v1.5.2PL0 Copyright (c) Steve Scherf et al.
# Submitted via: fre:ac v1.0.31
# 
DISCID=b00d020c
DTITLE=Jazz - Smooth Jazz Hits - #1 Chart-Toppers
DYEAR=2014
DGENRE=Jazz
TTITLE0=Batucada (The Beat) - Boney James
TTITLE1=Got To Get You Into My Life - Dave Koz and Friends
TTITLE2=Haute Sauce - Mindi Abair
TTITLE3=The Lady In My Life - George Benson
TTITLE4=Shake Your Body (Down to the Ground) - BWB
TTITLE5=Champagne Life - Gerald Albright and Norman Brown
TTITLE6=Sonnymoon - Fourplay
TTITLE7=Heart and Soul - Kenny G
TTITLE8=Feelin' It - David Benoit
TTITLE9=Givin' It Up - Richard Elliot
TTITLE10=Hacienda - Jeff Lorber Fusion
TTITLE11=The Village - Lee Ritenour
EXTD=YEAR: 2014
EXTT0=
EXTT1=
EXTT2=
EXTT3=
EXTT4=
EXTT5=
EXTT6=
EXTT7=
EXTT8=
EXTT9=
EXTT10=
EXTT11=
PLAYORDER=
